<?xml version="1.0" standalone="no"?>
<!DOCTYPE svg PUBLIC "-//W3C//DTD SVG 20010904//EN"
 "http://www.w3.org/TR/2001/REC-SVG-20010904/DTD/svg10.dtd">
<svg version="1.0" xmlns="http://www.w3.org/2000/svg"
 width="512.000000pt" height="512.000000pt" viewBox="0 0 512.000000 512.000000"
 preserveAspectRatio="xMidYMid meet">
<metadata>
Created by potrace 1.11, written by Peter Selinger 2001-2013
</metadata>
<g transform="translate(0.000000,512.000000) scale(0.100000,-0.100000)"
fill="#000000" stroke="none">
<path d="M1255 4990 c-50 -20 -58 -42 -58 -172 -1 -265 30 -457 102 -629 125
-297 374 -457 711 -457 97 0 241 17 283 33 42 17 192 -386 243 -650 4 -22 9
-47 11 -55 9 -45 41 -284 50 -383 10 -111 10 -703 -1 -802 -5 -44 -9 -91 -10
-105 0 -14 -5 -28 -10 -31 -9 -7 -74 -4 -116 6 -14 3 -38 8 -53 10 -82 15
-201 68 -352 155 -284 164 -633 297 -909 346 -74 13 -279 14 -331 1 -11 -2
-38 -7 -60 -11 -224 -39 -534 -231 -706 -439 l-49 -58 0 -427 c0 -457 1 -465
50 -489 14 -6 65 -14 115 -18 50 -4 97 -9 105 -10 8 -2 44 -6 80 -10 36 -4 73
-9 84 -11 10 -2 44 -6 75 -10 31 -3 59 -8 62 -10 3 -2 21 -6 40 -9 19 -3 50
-10 69 -15 19 -5 50 -12 67 -15 57 -9 256 -72 374 -118 94 -36 458 -192 624
-267 219 -98 406 -171 492 -191 304 -70 594 -34 938 116 134 58 511 199 600
224 98 27 190 63 235 91 8 5 38 22 65 38 28 17 61 39 75 51 174 145 242 226
321 384 23 45 45 89 49 98 5 10 20 44 34 76 33 79 252 577 275 628 11 22 34
74 51 115 18 41 46 103 61 138 16 34 29 64 29 67 0 2 15 37 34 77 124 272 130
291 93 334 -22 25 -31 28 -88 29 -141 2 -288 -38 -404 -110 -69 -43 -159 -129
-260 -250 -27 -33 -55 -64 -61 -70 -6 -5 -67 -75 -135 -155 -68 -80 -136 -158
-151 -175 -14 -16 -36 -41 -48 -55 -12 -14 -65 -75 -118 -136 l-95 -110 -62
62 c-61 60 -126 95 -202 108 -15 2 -185 5 -376 5 l-348 1 5 38 c3 20 8 71 11
112 3 41 8 89 11 105 3 17 7 41 10 55 2 14 6 39 8 55 26 161 114 443 176 564
18 36 23 40 40 31 37 -20 193 -51 259 -52 102 -2 159 10 246 52 85 41 161 107
216 186 90 131 164 347 184 539 3 28 8 61 11 75 10 51 12 302 3 329 -17 48
-46 56 -213 55 -209 -1 -392 -32 -527 -88 -216 -90 -372 -280 -415 -506 -21
-115 -5 -336 35 -455 19 -58 19 -60 1 -105 -10 -25 -21 -54 -24 -64 -4 -10 -9
-16 -12 -13 -5 5 -7 19 -19 132 -40 403 -128 732 -270 1015 -44 87 -45 91 -30
119 16 32 62 169 70 210 45 233 8 405 -118 551 -135 156 -403 271 -712 306
-33 3 -63 8 -67 11 -14 8 -353 11 -373 3z"/>
</g>
</svg>
